<?xml version="1.0" encoding="UTF-8"?>
<svg id="_イヤー_1" data-name="レイヤー 1" xmlns="http://www.w3.org/2000/svg" width="2000" height="2000" viewBox="0 0 2000 2000">
  <path d="M506,951.31l64.59,35.34,62.41-35.03v32.88h351.57V156.61h-340.6l-73.56,42.61-75.46-42.61h-201.25c-75.55,0-137.01,61.46-137.01,137.01V984.5H506v-33.19Z" fill="#333f45"/>
  <path d="M1841.5,293.51c0-75.55-61.46-137.01-137.01-137.01H1013.5V984.5h828V293.51Zm-30,660.99h-768V186.5h660.99c59.01,0,107.01,48.01,107.01,107.01V954.5Z" fill="#333f45"/>
  <path d="M984.5,1773.82V1014.5H156.5v690.99c0,75.55,61.46,137.01,137.01,137.01h211.99v-69h74.1l59.14,69h363.68l-59.88-68.86,41.95,.18Zm-331.96,38.68l-59.14-69h-117.9v69h-181.99c-59.01,0-107.01-48-107.01-107.01v-660.99H954.5v699.19l-78.05-.34,60.12,69.14h-284.04Z" fill="#333f45"/>
  <path d="M1013.59,1014.95v828h349v-68.99l341.91,.18h.08c36.58,0,70.98-14.24,96.85-40.1,25.9-25.88,40.16-60.3,40.16-96.91V1014.95H1013.59Z" fill="#333f45"/>
</svg>